<?xml version="1.0" encoding="UTF-8"?>
<svg id="Ebene_2" data-name="Ebene 2" xmlns="http://www.w3.org/2000/svg" viewBox="0 0 446.18 101.98">
  <defs>
    <style>
      .cls-1 {
        fill: #fff;
      }
    </style>
  </defs>
  <g id="Ebene_1-2" data-name="Ebene 1">
    <g>
      <path class="cls-1" d="M313.4,5.85c-26.76,0-46.8,19.59-46.8,46.05s20.04,46.05,46.8,46.05,46.65-19.59,46.65-46.05-20.04-46.05-46.65-46.05Z"/>
      <path class="cls-1" d="M371.71,90.77l3.44-5.68c7.18,7.48,20.48,13.16,34.54,13.16,20.93,0,30.2-9.12,30.2-20.48,0-31.4-65.34-12.56-65.34-51.14,0-12.17,7.68-23.11,24.7-26.63h-73.87c24.92,4.99,42.44,25.46,42.44,51.9,0,23.93-14.36,42.98-35.56,50.08h58.31c-7.83-2.51-14.52-6.44-18.86-11.2Z"/>
      <path class="cls-1" d="M301.4,0h-19.55l-4.89,11.72c6.73-5.76,15.05-9.83,24.44-11.72Z"/>
      <path class="cls-1" d="M259.04,54.62l-19.78,47.35h55.27c-20.45-6.85-34.44-24.79-35.49-47.35Z"/>
      <path class="cls-1" d="M445.75,28.67c-2.12-10.25-10.05-18.29-20.12-21.14-4.71-1.33-9.49-1.98-13.99-1.98-20.33,0-29.46,9.42-29.46,20.93,0,28.74,54.72,15.65,64,42.34v-36.45c0-1.13-.16-2.39-.43-3.69Z"/>
    </g>
    <g id="Bildmaterial_1" data-name="Bildmaterial 1">
      <g>
        <polygon class="cls-1" points="245.51 0 217.01 58.72 199.22 0 167.56 0 148.77 57.98 121.23 0 90.17 0 132.61 101.98 165.1 101.98 182.45 47.47 198.91 101.98 231.42 101.98 273.78 0 245.51 0"/>
        <path class="cls-1" d="M61.25,33.8l9.92,25.62h-19.84l9.92-25.62ZM44.61,0L0,101.98h35l6.84-17.75h38.78l6.85,17.75h35.56L78.42,0h-33.81Z"/>
      </g>
    </g>
  </g>
</svg>